TITLE ""
FILE "LR_black_phrase_E_S02.mp3" MP3
  TRACK 01 AUDIO
    TITLE "LR_black_phrase_E_S02_001"
    INDEX 01 00:00:00
  TRACK 02 AUDIO
    TITLE "LR_black_phrase_E_S02_002"
    INDEX 01 00:00:14
  TRACK 03 AUDIO
    TITLE "LR_black_phrase_E_S02_003"
    INDEX 01 00:01:31
  TRACK 04 AUDIO
    TITLE "LR_black_phrase_E_S02_004"
    INDEX 01 00:01:65
  TRACK 05 AUDIO
    TITLE "LR_black_phrase_E_S02_005"
    INDEX 01 00:03:67
  TRACK 06 AUDIO
    TITLE "LR_black_phrase_E_S02_006"
    INDEX 01 00:04:47
  TRACK 07 AUDIO
    TITLE "LR_black_phrase_E_S02_007"
    INDEX 01 00:06:52
  TRACK 08 AUDIO
    TITLE "LR_black_phrase_E_S02_008"
    INDEX 01 00:07:57
  TRACK 09 AUDIO
    TITLE "LR_black_phrase_E_S02_009"
    INDEX 01 00:09:07
  TRACK 10 AUDIO
    TITLE "LR_black_phrase_E_S02_010"
    INDEX 01 00:09:37
  TRACK 11 AUDIO
    TITLE "LR_black_phrase_E_S02_011"
    INDEX 01 00:12:06
  TRACK 12 AUDIO
    TITLE "LR_black_phrase_E_S02_012"
    INDEX 01 00:12:57
  TRACK 13 AUDIO
    TITLE "LR_black_phrase_E_S02_013"
    INDEX 01 00:15:24
  TRACK 14 AUDIO
    TITLE "LR_black_phrase_E_S02_014"
    INDEX 01 00:16:27
  TRACK 15 AUDIO
    TITLE "LR_black_phrase_E_S02_015"
    INDEX 01 00:17:52
  TRACK 16 AUDIO
    TITLE "LR_black_phrase_E_S02_016"
    INDEX 01 00:17:70
  TRACK 17 AUDIO
    TITLE "LR_black_phrase_E_S02_017"
    INDEX 01 00:19:49
  TRACK 18 AUDIO
    TITLE "LR_black_phrase_E_S02_018"
    INDEX 01 00:20:23
  TRACK 19 AUDIO
    TITLE "LR_black_phrase_E_S02_019"
    INDEX 01 00:22:04
  TRACK 20 AUDIO
    TITLE "LR_black_phrase_E_S02_020"
    INDEX 01 00:23:09
  TRACK 21 AUDIO
    TITLE "LR_black_phrase_E_S02_021"
    INDEX 01 00:24:30
  TRACK 22 AUDIO
    TITLE "LR_black_phrase_E_S02_022"
    INDEX 01 00:24:60
  TRACK 23 AUDIO
    TITLE "LR_black_phrase_E_S02_023"
    INDEX 01 00:26:59
  TRACK 24 AUDIO
    TITLE "LR_black_phrase_E_S02_024"
    INDEX 01 00:27:37
  TRACK 25 AUDIO
    TITLE "LR_black_phrase_E_S02_025"
    INDEX 01 00:29:35
  TRACK 26 AUDIO
    TITLE "LR_black_phrase_E_S02_026"
    INDEX 01 00:30:41
  TRACK 27 AUDIO
    TITLE "LR_black_phrase_E_S02_027"
    INDEX 01 00:31:60
  TRACK 28 AUDIO
    TITLE "LR_black_phrase_E_S02_028"
    INDEX 01 00:32:16
  TRACK 29 AUDIO
    TITLE "LR_black_phrase_E_S02_029"
    INDEX 01 00:34:43
  TRACK 30 AUDIO
    TITLE "LR_black_phrase_E_S02_030"
    INDEX 01 00:35:18
  TRACK 31 AUDIO
    TITLE "LR_black_phrase_E_S02_031"
    INDEX 01 00:37:43
  TRACK 32 AUDIO
    TITLE "LR_black_phrase_E_S02_032"
    INDEX 01 00:38:46
  TRACK 33 AUDIO
    TITLE "LR_black_phrase_E_S02_033"
    INDEX 01 00:39:59
  TRACK 34 AUDIO
    TITLE "LR_black_phrase_E_S02_034"
    INDEX 01 00:40:20
  TRACK 35 AUDIO
    TITLE "LR_black_phrase_E_S02_035"
    INDEX 01 00:42:58
  TRACK 36 AUDIO
    TITLE "LR_black_phrase_E_S02_036"
    INDEX 01 00:43:34
  TRACK 37 AUDIO
    TITLE "LR_black_phrase_E_S02_037"
    INDEX 01 00:45:74
  TRACK 38 AUDIO
    TITLE "LR_black_phrase_E_S02_038"
    INDEX 01 00:46:75
  TRACK 39 AUDIO
    TITLE "LR_black_phrase_E_S02_039"
    INDEX 01 00:48:37
  TRACK 40 AUDIO
    TITLE "LR_black_phrase_E_S02_040"
    INDEX 01 00:48:68
  TRACK 41 AUDIO
    TITLE "LR_black_phrase_E_S02_041"
    INDEX 01 00:51:02
  TRACK 42 AUDIO
    TITLE "LR_black_phrase_E_S02_042"
    INDEX 01 00:51:55
  TRACK 43 AUDIO
    TITLE "LR_black_phrase_E_S02_043"
    INDEX 01 00:53:65
  TRACK 44 AUDIO
    TITLE "LR_black_phrase_E_S02_044"
    INDEX 01 00:54:67
  TRACK 45 AUDIO
    TITLE "LR_black_phrase_E_S02_045"
    INDEX 01 00:56:30
  TRACK 46 AUDIO
    TITLE "LR_black_phrase_E_S02_046"
    INDEX 01 00:56:58
  TRACK 47 AUDIO
    TITLE "LR_black_phrase_E_S02_047"
    INDEX 01 00:58:67
  TRACK 48 AUDIO
    TITLE "LR_black_phrase_E_S02_048"
    INDEX 01 00:59:50
  TRACK 49 AUDIO
    TITLE "LR_black_phrase_E_S02_049"
    INDEX 01 01:01:61
  TRACK 50 AUDIO
    TITLE "LR_black_phrase_E_S02_050"
    INDEX 01 01:02:74
  TRACK 51 AUDIO
    TITLE "LR_black_phrase_E_S02_051"
    INDEX 01 01:04:16
  TRACK 52 AUDIO
    TITLE "LR_black_phrase_E_S02_052"
    INDEX 01 01:04:44
  TRACK 53 AUDIO
    TITLE "LR_black_phrase_E_S02_053"
    INDEX 01 01:06:60
  TRACK 54 AUDIO
    TITLE "LR_black_phrase_E_S02_054"
    INDEX 01 01:07:40
  TRACK 55 AUDIO
    TITLE "LR_black_phrase_E_S02_055"
    INDEX 01 01:09:55
  TRACK 56 AUDIO
    TITLE "LR_black_phrase_E_S02_056"
    INDEX 01 01:10:60
  TRACK 57 AUDIO
    TITLE "LR_black_phrase_E_S02_057"
    INDEX 01 01:11:73
  TRACK 58 AUDIO
    TITLE "LR_black_phrase_E_S02_058"
    INDEX 01 01:12:27
  TRACK 59 AUDIO
    TITLE "LR_black_phrase_E_S02_059"
    INDEX 01 01:14:58
  TRACK 60 AUDIO
    TITLE "LR_black_phrase_E_S02_060"
    INDEX 01 01:15:39
  TRACK 61 AUDIO
    TITLE "LR_black_phrase_E_S02_061"
    INDEX 01 01:17:68
  TRACK 62 AUDIO
    TITLE "LR_black_phrase_E_S02_062"
    INDEX 01 01:18:71
  TRACK 63 AUDIO
    TITLE "LR_black_phrase_E_S02_063"
    INDEX 01 01:20:17
  TRACK 64 AUDIO
    TITLE "LR_black_phrase_E_S02_064"
    INDEX 01 01:20:37
  TRACK 65 AUDIO
    TITLE "LR_black_phrase_E_S02_065"
    INDEX 01 01:22:53
  TRACK 66 AUDIO
    TITLE "LR_black_phrase_E_S02_066"
    INDEX 01 01:23:25
  TRACK 67 AUDIO
    TITLE "LR_black_phrase_E_S02_067"
    INDEX 01 01:25:40
  TRACK 68 AUDIO
    TITLE "LR_black_phrase_E_S02_068"
    INDEX 01 01:26:45
  TRACK 69 AUDIO
    TITLE "LR_black_phrase_E_S02_069"
    INDEX 01 01:28:03
  TRACK 70 AUDIO
    TITLE "LR_black_phrase_E_S02_070"
    INDEX 01 01:28:32
  TRACK 71 AUDIO
    TITLE "LR_black_phrase_E_S02_071"
    INDEX 01 01:32:32
  TRACK 72 AUDIO
    TITLE "LR_black_phrase_E_S02_072"
    INDEX 01 01:33:12
  TRACK 73 AUDIO
    TITLE "LR_black_phrase_E_S02_073"
    INDEX 01 01:37:12
  TRACK 74 AUDIO
    TITLE "LR_black_phrase_E_S02_074"
    INDEX 01 01:38:17
  TRACK 75 AUDIO
    TITLE "LR_black_phrase_E_S02_075"
    INDEX 01 01:39:34
  TRACK 76 AUDIO
    TITLE "LR_black_phrase_E_S02_076"
    INDEX 01 01:39:60
  TRACK 77 AUDIO
    TITLE "LR_black_phrase_E_S02_077"
    INDEX 01 01:42:21
  TRACK 78 AUDIO
    TITLE "LR_black_phrase_E_S02_078"
    INDEX 01 01:42:74
  TRACK 79 AUDIO
    TITLE "LR_black_phrase_E_S02_079"
    INDEX 01 01:45:35
  TRACK 80 AUDIO
    TITLE "LR_black_phrase_E_S02_080"
    INDEX 01 01:46:40
  TRACK 81 AUDIO
    TITLE "LR_black_phrase_E_S02_081"
    INDEX 01 01:47:61
  TRACK 82 AUDIO
    TITLE "LR_black_phrase_E_S02_082"
    INDEX 01 01:48:13
  TRACK 83 AUDIO
    TITLE "LR_black_phrase_E_S02_083"
    INDEX 01 01:50:03
  TRACK 84 AUDIO
    TITLE "LR_black_phrase_E_S02_084"
    INDEX 01 01:50:54
  TRACK 85 AUDIO
    TITLE "LR_black_phrase_E_S02_085"
    INDEX 01 01:52:43
  TRACK 86 AUDIO
    TITLE "LR_black_phrase_E_S02_086"
    INDEX 01 01:53:44
  TRACK 87 AUDIO
    TITLE "LR_black_phrase_E_S02_087"
    INDEX 01 01:54:65
  TRACK 88 AUDIO
    TITLE "LR_black_phrase_E_S02_088"
    INDEX 01 01:55:19
  TRACK 89 AUDIO
    TITLE "LR_black_phrase_E_S02_089"
    INDEX 01 01:57:58
  TRACK 90 AUDIO
    TITLE "LR_black_phrase_E_S02_090"
    INDEX 01 01:58:33
  TRACK 91 AUDIO
    TITLE "LR_black_phrase_E_S02_091"
    INDEX 01 02:00:70
  TRACK 92 AUDIO
    TITLE "LR_black_phrase_E_S02_092"
    INDEX 01 02:01:75
  TRACK 93 AUDIO
    TITLE "LR_black_phrase_E_S02_093"
    INDEX 01 02:03:11
  TRACK 94 AUDIO
    TITLE "LR_black_phrase_E_S02_094"
    INDEX 01 02:03:39
  TRACK 95 AUDIO
    TITLE "LR_black_phrase_E_S02_095"
    INDEX 01 02:05:69
  TRACK 96 AUDIO
    TITLE "LR_black_phrase_E_S02_096"
    INDEX 01 02:06:49
  TRACK 97 AUDIO
    TITLE "LR_black_phrase_E_S02_097"
    INDEX 01 02:09:04
  TRACK 98 AUDIO
    TITLE "LR_black_phrase_E_S02_098"
    INDEX 01 02:10:11
  TRACK 99 AUDIO
    TITLE "LR_black_phrase_E_S02_099"
    INDEX 01 02:11:30
  TRACK 100 AUDIO
    TITLE "LR_black_phrase_E_S02_100"
    INDEX 01 02:11:60
  TRACK 101 AUDIO
    TITLE "LR_black_phrase_E_S02_101"
    INDEX 01 02:13:68
  TRACK 102 AUDIO
    TITLE "LR_black_phrase_E_S02_102"
    INDEX 01 02:14:48
  TRACK 103 AUDIO
    TITLE "LR_black_phrase_E_S02_103"
    INDEX 01 02:16:55
  TRACK 104 AUDIO
    TITLE "LR_black_phrase_E_S02_104"
    INDEX 01 02:17:60
  TRACK 105 AUDIO
    TITLE "LR_black_phrase_E_S02_105"
    INDEX 01 02:18:71
  TRACK 106 AUDIO
    TITLE "LR_black_phrase_E_S02_106"
    INDEX 01 02:19:28
  TRACK 107 AUDIO
    TITLE "LR_black_phrase_E_S02_107"
    INDEX 01 02:21:36
  TRACK 108 AUDIO
    TITLE "LR_black_phrase_E_S02_108"
    INDEX 01 02:22:18
  TRACK 109 AUDIO
    TITLE "LR_black_phrase_E_S02_109"
    INDEX 01 02:24:27
  TRACK 110 AUDIO
    TITLE "LR_black_phrase_E_S02_110"
    INDEX 01 02:25:32
  TRACK 111 AUDIO
    TITLE "LR_black_phrase_E_S02_111"
    INDEX 01 02:26:57
  TRACK 112 AUDIO
    TITLE "LR_black_phrase_E_S02_112"
    INDEX 01 02:27:14
  TRACK 113 AUDIO
    TITLE "LR_black_phrase_E_S02_113"
    INDEX 01 02:29:63
  TRACK 114 AUDIO
    TITLE "LR_black_phrase_E_S02_114"
    INDEX 01 02:30:43
  TRACK 115 AUDIO
    TITLE "LR_black_phrase_E_S02_115"
    INDEX 01 02:33:18
  TRACK 116 AUDIO
    TITLE "LR_black_phrase_E_S02_116"
    INDEX 01 02:34:23
  TRACK 117 AUDIO
    TITLE "LR_black_phrase_E_S02_117"
    INDEX 01 02:35:39
  TRACK 118 AUDIO
    TITLE "LR_black_phrase_E_S02_118"
    INDEX 01 02:35:62
  TRACK 119 AUDIO
    TITLE "LR_black_phrase_E_S02_119"
    INDEX 01 02:38:31
  TRACK 120 AUDIO
    TITLE "LR_black_phrase_E_S02_120"
    INDEX 01 02:39:13
  TRACK 121 AUDIO
    TITLE "LR_black_phrase_E_S02_121"
    INDEX 01 02:41:57
